<?xml version="1.0" encoding="UTF-8"?>
<svg width="10px" height="10px" viewBox="0 0 10 10" version="1.1" xmlns="http://www.w3.org/2000/svg" xmlns:xlink="http://www.w3.org/1999/xlink">
    <!-- Generator: Sketch 54.1 (76490) - https://sketchapp.com -->
    <title>Mask</title>
    <desc>Created with Sketch.</desc>
    <g id="Page-1" stroke="none" stroke-width="1" fill="none" fill-rule="evenodd">
        <path d="M5,3.58578644 L8.29289322,0.292893219 C8.68341751,-0.0976310729 9.31658249,-0.0976310729 9.70710678,0.292893219 C10.0976311,0.683417511 10.0976311,1.31658249 9.70710678,1.70710678 L6.41421356,5 L9.70710678,8.29289322 C10.0976311,8.68341751 10.0976311,9.31658249 9.70710678,9.70710678 C9.31658249,10.0976311 8.68341751,10.0976311 8.29289322,9.70710678 L5,6.41421356 L1.70710678,9.70710678 C1.31658249,10.0976311 0.683417511,10.0976311 0.292893219,9.70710678 C-0.0976310729,9.31658249 -0.0976310729,8.68341751 0.292893219,8.29289322 L3.58578644,5 L0.292893219,1.70710678 C-0.0976310729,1.31658249 -0.0976310729,0.683417511 0.292893219,0.292893219 C0.683417511,-0.0976310729 1.31658249,-0.0976310729 1.70710678,0.292893219 L5,3.58578644 Z" id="Mask" fill="#627386" fill-rule="nonzero"></path>
    </g>
</svg>