<?xml version="1.0" encoding="UTF-8"?>
<svg width="12px" height="10px" viewBox="0 0 12 10" version="1.1" xmlns="http://www.w3.org/2000/svg" xmlns:xlink="http://www.w3.org/1999/xlink">
    <!-- Generator: Sketch 54.1 (76490) - https://sketchapp.com -->
    <title>Mask</title>
    <desc>Created with Sketch.</desc>
    <g id="Page-1" stroke="none" stroke-width="1" fill="none" fill-rule="evenodd">
        <path d="M5,8 L7,8 C7.553,8 8,8.448 8,9 C8,9.552 7.553,10 7,10 L5,10 C4.447,10 4,9.552 4,9 C4,8.448 4.447,8 5,8 Z M3,4 L9,4 C9.553,4 10,4.448 10,5 C10,5.552 9.553,6 9,6 L3,6 C2.447,6 2,5.552 2,5 C2,4.448 2.447,4 3,4 Z M1,0 L11,0 C11.553,0 12,0.448 12,1 C12,1.552 11.553,2 11,2 L1,2 C0.447,2 0,1.552 0,1 C0,0.448 0.447,0 1,0 Z" id="Mask" fill="#4D5969"></path>
    </g>
</svg>